<svg xmlns="http://www.w3.org/2000/svg" viewBox="120 350 560 145" preserveAspectRatio="xMidYMid meet">
  <g fill="#fefefe" fill-opacity="1">
    <g transform="translate(128.463521, 457.499997)">
      <path d="M 70.34375 -74.546875 L 91.65625 -74.546875 L 55.796875 0 L 37.34375 0 L 2.25 -74.546875 L 23.703125 -74.546875 L 46.65625 -20.84375 Z M 70.34375 -74.546875 "/>
    </g>
  </g>
  <g fill="#fefefe" fill-opacity="1">
    <g transform="translate(222.513534, 457.499997)">
      <path d="M 64.5 -76.203125 C 70.601562 -76.203125 76.078125 -75.175781 80.921875 -73.125 C 85.773438 -71.070312 89.597656 -67.921875 92.390625 -63.671875 C 95.191406 -59.421875 96.59375 -54.097656 96.59375 -47.703125 L 96.59375 0 L 77.09375 0 L 77.09375 -40.953125 C 77.09375 -46.953125 75.492188 -51.523438 72.296875 -54.671875 C 69.097656 -57.828125 63.695312 -59.40625 56.09375 -59.40625 C 49.800781 -59.40625 44.253906 -57.878906 39.453125 -54.828125 C 34.648438 -51.773438 31.445312 -48.195312 29.84375 -44.09375 L 29.84375 0 L 10.34375 0 L 10.34375 -104.546875 L 29.84375 -104.546875 L 29.84375 -53.09375 C 31.144531 -57.09375 33.34375 -60.84375 36.4375 -64.34375 C 39.539062 -67.84375 43.441406 -70.691406 48.140625 -72.890625 C 52.847656 -75.097656 58.300781 -76.203125 64.5 -76.203125 Z M 64.5 -76.203125 "/>
    </g>
  </g>
  <g fill="#fefefe" fill-opacity="1">
    <g transform="translate(327.663538, 457.499997)">
      <path d="M 52.953125 1.796875 C 43.546875 1.796875 35.269531 0.296875 28.125 -2.703125 C 20.976562 -5.703125 15.40625 -10.078125 11.40625 -15.828125 C 7.40625 -21.578125 5.40625 -28.648438 5.40625 -37.046875 C 5.40625 -45.453125 7.40625 -52.578125 11.40625 -58.421875 C 15.40625 -64.273438 20.976562 -68.703125 28.125 -71.703125 C 35.269531 -74.703125 43.546875 -76.203125 52.953125 -76.203125 C 62.347656 -76.203125 70.570312 -74.703125 77.625 -71.703125 C 84.675781 -68.703125 90.203125 -64.273438 94.203125 -58.421875 C 98.203125 -52.578125 100.203125 -45.453125 100.203125 -37.046875 C 100.203125 -28.648438 98.203125 -21.578125 94.203125 -15.828125 C 90.203125 -10.078125 84.675781 -5.703125 77.625 -2.703125 C 70.570312 0.296875 62.347656 1.796875 52.953125 1.796875 Z M 52.953125 -13.203125 C 58.046875 -13.203125 62.664062 -14.125 66.8125 -15.96875 C 70.96875 -17.820312 74.269531 -20.523438 76.71875 -24.078125 C 79.175781 -27.628906 80.40625 -31.953125 80.40625 -37.046875 C 80.40625 -42.148438 79.175781 -46.523438 76.71875 -50.171875 C 74.269531 -53.828125 70.992188 -56.601562 66.890625 -58.5 C 62.796875 -60.394531 58.148438 -61.34375 52.953125 -61.34375 C 47.847656 -61.34375 43.195312 -60.394531 39 -58.5 C 34.800781 -56.601562 31.453125 -53.851562 28.953125 -50.25 C 26.453125 -46.644531 25.203125 -42.242188 25.203125 -37.046875 C 25.203125 -31.953125 26.425781 -27.628906 28.875 -24.078125 C 31.320312 -20.523438 34.644531 -17.820312 38.84375 -15.96875 C 43.050781 -14.125 47.753906 -13.203125 52.953125 -13.203125 Z M 52.953125 -13.203125 "/>
    </g>
  </g>
  <g fill="#fefefe" fill-opacity="1">
    <g transform="translate(433.263569, 457.499997)">
      <path d="M 56.40625 -75.296875 L 96.90625 -75.296875 L 96.90625 -60.453125 C 91.5 -60.347656 86.117188 -61.046875 80.765625 -62.546875 C 75.421875 -64.046875 70.695312 -65.644531 66.59375 -67.34375 C 70.09375 -65.644531 73.367188 -63.617188 76.421875 -61.265625 C 79.472656 -58.921875 81.945312 -56.195312 83.84375 -53.09375 C 85.75 -50 86.703125 -46.453125 86.703125 -42.453125 C 86.703125 -32.648438 83.078125 -25.023438 75.828125 -19.578125 C 68.578125 -14.128906 58.703125 -11.40625 46.203125 -11.40625 C 39.898438 -11.195312 35.222656 -10.664062 32.171875 -9.8125 C 29.117188 -8.96875 27.59375 -7.296875 27.59375 -4.796875 C 27.59375 -1.597656 29.894531 0 34.5 0 L 58.953125 0 C 68.953125 0 76.75 1.695312 82.34375 5.09375 C 87.945312 8.5 90.75 14.703125 90.75 23.703125 L 90.75 30.75 L 71.25 30.75 L 71.25 27.15625 C 71.25 22.550781 69.773438 19.347656 66.828125 17.546875 C 63.878906 15.742188 59.851562 14.84375 54.75 14.84375 L 31.5 14.84375 C 25.394531 14.84375 20.644531 14.21875 17.25 12.96875 C 13.851562 11.71875 11.425781 10.019531 9.96875 7.875 C 8.519531 5.726562 7.796875 3.300781 7.796875 0.59375 C 7.796875 -4.5 9.96875 -8.070312 14.3125 -10.125 C 18.664062 -12.175781 24.09375 -13.203125 30.59375 -13.203125 C 22.800781 -15.203125 16.65625 -18.75 12.15625 -23.84375 C 7.65625 -28.945312 5.40625 -35.445312 5.40625 -43.34375 C 5.40625 -50.050781 7.078125 -55.851562 10.421875 -60.75 C 13.773438 -65.644531 18.5 -69.441406 24.59375 -72.140625 C 30.695312 -74.847656 37.898438 -76.203125 46.203125 -76.203125 C 49.703125 -76.203125 53.101562 -75.898438 56.40625 -75.296875 Z M 59.84375 -70.34375 C 60.644531 -70.050781 61.394531 -69.753906 62.09375 -69.453125 C 61.300781 -69.847656 60.550781 -70.195312 59.84375 -70.5 Z M 46.203125 -25.5 C 52.597656 -25.5 57.796875 -27.046875 61.796875 -30.140625 C 65.796875 -33.242188 67.796875 -37.597656 67.796875 -43.203125 C 67.796875 -48.796875 65.820312 -53.191406 61.875 -56.390625 C 57.925781 -59.597656 52.703125 -61.203125 46.203125 -61.203125 C 39.703125 -61.203125 34.453125 -59.625 30.453125 -56.46875 C 26.453125 -53.320312 24.453125 -48.898438 24.453125 -43.203125 C 24.453125 -37.597656 26.425781 -33.242188 30.375 -30.140625 C 34.320312 -27.046875 39.597656 -25.5 46.203125 -25.5 Z M 46.203125 -25.5 "/>
    </g>
  </g>
  <g fill="#fefefe" fill-opacity="1">
    <g transform="translate(532.563582, 457.499997)">
      <path d="M 80.25 -74.546875 L 99.75 -74.546875 L 99.75 0 L 81.59375 0 C 81.59375 0 81.46875 -0.972656 81.21875 -2.921875 C 80.96875 -4.867188 80.742188 -7.316406 80.546875 -10.265625 C 80.347656 -13.222656 80.25 -16.203125 80.25 -19.203125 L 80.25 -23.84375 C 78.851562 -19.34375 76.675781 -15.164062 73.71875 -11.3125 C 70.769531 -7.46875 66.945312 -4.34375 62.25 -1.9375 C 57.550781 0.457031 51.898438 1.65625 45.296875 1.65625 C 37.898438 1.65625 31.175781 0.03125 25.125 -3.21875 C 19.070312 -6.46875 14.269531 -10.992188 10.71875 -16.796875 C 7.175781 -22.597656 5.40625 -29.398438 5.40625 -37.203125 C 5.40625 -45.003906 7.203125 -51.828125 10.796875 -57.671875 C 14.398438 -63.523438 19.273438 -68.078125 25.421875 -71.328125 C 31.578125 -74.578125 38.550781 -76.203125 46.34375 -76.203125 C 55.945312 -76.203125 63.472656 -74 68.921875 -69.59375 C 74.367188 -65.195312 78.144531 -59.5 80.25 -52.5 Z M 51.59375 -13.34375 C 60.394531 -13.34375 67.367188 -15.539062 72.515625 -19.9375 C 77.671875 -24.34375 80.25 -30.097656 80.25 -37.203125 C 80.25 -44.796875 77.648438 -50.664062 72.453125 -54.8125 C 67.253906 -58.96875 60.300781 -61.046875 51.59375 -61.046875 C 43.300781 -61.046875 36.851562 -58.867188 32.25 -54.515625 C 27.644531 -50.171875 25.34375 -44.398438 25.34375 -37.203125 C 25.34375 -30.003906 27.742188 -24.226562 32.546875 -19.875 C 37.347656 -15.519531 43.695312 -13.34375 51.59375 -13.34375 Z M 51.59375 -13.34375 "/>
    </g>
  </g>
  <g fill="#fefefe" fill-opacity="1">
    <g transform="translate(640.863595, 457.499997)">
      <path d="M 10.5 -104.546875 L 30 -104.546875 L 30 0 L 10.5 0 Z M 10.5 -104.546875 "/>
    </g>
  </g>
</svg>
